<svg version="1.0" xmlns="http://www.w3.org/2000/svg" preserveAspectRatio="xMidYMid meet" viewBox="182 9.17 44 58.83">

<g transform="translate(0.000000,76.000000) scale(0.100000,-0.100000)" fill="#000000" stroke="none">
<path d="M1827 664 c-4 -4 -7 -31 -7 -60 0 -47 3 -54 23 -59 12 -3 110 -4 217 -3 l195 3 0 60 0 60 -211 3 c-115 1 -213 -1 -217 -4z"/>
<path d="M1872 432 c-9 -6 -12 -27 -10 -63 l3 -54 175 0 175 0 0 60 0 60 -165 2 c-91 2 -171 -1 -178 -5z"/>
<path d="M1820 140 l0 -60 220 0 220 0 0 60 0 60 -220 0 -220 0 0 -60z"/>
</g>
</svg>